<mxfile host="app.diagrams.net" modified="2020-08-19T07:21:48.671Z" agent="5.0 (Windows NT 6.1; Win64; x64) AppleWebKit/537.36 (KHTML, like Gecko) Chrome/84.0.4147.125 Safari/537.36" etag="ao158zwZbiUTZc1GVoGN" version="13.6.3" type="github">
  <diagram id="C5RBs43oDa-KdzZeNtuy" name="Page-1">
    <mxGraphModel dx="782" dy="482" grid="1" gridSize="10" guides="1" tooltips="1" connect="1" arrows="1" fold="1" page="1" pageScale="1" pageWidth="827" pageHeight="1169" math="0" shadow="0">
      <root>
        <mxCell id="WIyWlLk6GJQsqaUBKTNV-0" />
        <mxCell id="WIyWlLk6GJQsqaUBKTNV-1" parent="WIyWlLk6GJQsqaUBKTNV-0" />
        <mxCell id="d8XL-BE_UVdsmNpmtMz1-2" value="" style="edgeStyle=orthogonalEdgeStyle;rounded=0;orthogonalLoop=1;jettySize=auto;html=1;" edge="1" parent="WIyWlLk6GJQsqaUBKTNV-1" source="d8XL-BE_UVdsmNpmtMz1-0" target="d8XL-BE_UVdsmNpmtMz1-1">
          <mxGeometry relative="1" as="geometry" />
        </mxCell>
        <mxCell id="d8XL-BE_UVdsmNpmtMz1-0" value="开始" style="rounded=1;whiteSpace=wrap;html=1;" vertex="1" parent="WIyWlLk6GJQsqaUBKTNV-1">
          <mxGeometry x="10" y="90" width="100" height="50" as="geometry" />
        </mxCell>
        <mxCell id="d8XL-BE_UVdsmNpmtMz1-5" value="" style="edgeStyle=orthogonalEdgeStyle;rounded=0;orthogonalLoop=1;jettySize=auto;html=1;" edge="1" parent="WIyWlLk6GJQsqaUBKTNV-1" source="d8XL-BE_UVdsmNpmtMz1-1" target="d8XL-BE_UVdsmNpmtMz1-3">
          <mxGeometry relative="1" as="geometry" />
        </mxCell>
        <mxCell id="d8XL-BE_UVdsmNpmtMz1-1" value="连接CAN卡到PC的USB口" style="rounded=1;whiteSpace=wrap;html=1;" vertex="1" parent="WIyWlLk6GJQsqaUBKTNV-1">
          <mxGeometry x="140" y="90" width="100" height="50" as="geometry" />
        </mxCell>
        <mxCell id="d8XL-BE_UVdsmNpmtMz1-6" value="" style="edgeStyle=orthogonalEdgeStyle;rounded=0;orthogonalLoop=1;jettySize=auto;html=1;" edge="1" parent="WIyWlLk6GJQsqaUBKTNV-1" source="d8XL-BE_UVdsmNpmtMz1-3" target="d8XL-BE_UVdsmNpmtMz1-4">
          <mxGeometry relative="1" as="geometry" />
        </mxCell>
        <mxCell id="d8XL-BE_UVdsmNpmtMz1-3" value="打开上位机软件" style="rounded=1;whiteSpace=wrap;html=1;" vertex="1" parent="WIyWlLk6GJQsqaUBKTNV-1">
          <mxGeometry x="270" y="90" width="100" height="50" as="geometry" />
        </mxCell>
        <mxCell id="d8XL-BE_UVdsmNpmtMz1-4" value="加载配置文件" style="rounded=1;whiteSpace=wrap;html=1;" vertex="1" parent="WIyWlLk6GJQsqaUBKTNV-1">
          <mxGeometry x="400" y="90" width="100" height="50" as="geometry" />
        </mxCell>
      </root>
    </mxGraphModel>
  </diagram>
</mxfile>
